<svg xmlns="http://www.w3.org/2000/svg" viewBox="0 0 800 600" role="img" aria-labelledby="title">
  <title id="title">お菓子教室LPのモックアップ</title>
  <rect width="800" height="600" fill="#d2b48c"/>
  <rect x="105" y="35" width="590" height="530" rx="5" fill="#f7f2eb"/>
  <rect x="105" y="35" width="590" height="38" fill="#fffdf9"/>
  <circle cx="130" cy="54" r="5" fill="#e8ddd0"/><circle cx="148" cy="54" r="5" fill="#d2b48c"/>
  <rect x="142" y="103" width="516" height="228" fill="#e8ddd0"/>
  <circle cx="400" cy="211" r="91" fill="#c8a974"/>
  <circle cx="400" cy="211" r="64" fill="#f7f2eb"/>
  <path d="M351 221c26-52 73-49 99 0-29 19-69 19-99 0Z" fill="#a4664a" opacity=".8"/>
  <rect x="267" y="364" width="266" height="13" rx="6" fill="#7b5a3e"/>
  <rect x="321" y="391" width="158" height="7" rx="4" fill="#c8a974"/>
  <rect x="236" y="427" width="328" height="6" rx="3" fill="#e8ddd0"/>
  <rect x="278" y="449" width="244" height="6" rx="3" fill="#e8ddd0"/>
  <rect x="344" y="492" width="112" height="34" rx="17" fill="#7b5a3e"/>
</svg>
