<svg xmlns="http://www.w3.org/2000/svg" viewBox="0 0 800 600" role="img" aria-labelledby="title">
  <title id="title">講師業LPのモックアップ</title>
  <rect width="800" height="600" fill="#7b5a3e"/>
  <rect x="105" y="35" width="590" height="530" rx="5" fill="#fffdf9"/>
  <rect x="105" y="35" width="590" height="38" fill="#f7f2eb"/>
  <circle cx="130" cy="54" r="5" fill="#e8ddd0"/><circle cx="148" cy="54" r="5" fill="#d2b48c"/>
  <rect x="105" y="73" width="590" height="300" fill="#f7f2eb"/>
  <rect x="146" y="119" width="232" height="13" rx="6" fill="#a4664a"/>
  <rect x="146" y="151" width="184" height="13" rx="6" fill="#7b5a3e"/>
  <rect x="146" y="193" width="198" height="6" rx="3" fill="#d2b48c"/>
  <rect x="146" y="211" width="170" height="6" rx="3" fill="#e8ddd0"/>
  <rect x="146" y="260" width="114" height="34" rx="17" fill="#a4664a"/>
  <path d="M484 122c101 11 132 111 86 201H407c-29-107 3-192 77-201Z" fill="#d2b48c"/>
  <circle cx="489" cy="175" r="45" fill="#c8a974"/>
  <path d="M429 323c9-82 119-82 132 0Z" fill="#a4664a" opacity=".7"/>
  <rect x="147" y="414" width="153" height="104" fill="#e8ddd0"/>
  <rect x="323" y="414" width="153" height="104" fill="#d2b48c"/>
  <rect x="499" y="414" width="153" height="104" fill="#e8ddd0"/>
</svg>
